<?xml version="1.0" encoding="UTF-8" standalone="no"?>
<!-- Created with Inkscape (http://www.inkscape.org/) -->

<svg
   width="98.545738mm"
   height="112.80857mm"
   viewBox="0 0 98.545738 112.80857"
   version="1.1"
   id="svg1"
   xml:space="preserve"
   inkscape:version="1.4.2 (ebf0e94, 2025-05-08)"
   sodipodi:docname="PowerPlant.svg"
   xmlns:inkscape="http://www.inkscape.org/namespaces/inkscape"
   xmlns:sodipodi="http://sodipodi.sourceforge.net/DTD/sodipodi-0.dtd"
   xmlns="http://www.w3.org/2000/svg"
   xmlns:svg="http://www.w3.org/2000/svg"><sodipodi:namedview
     id="namedview1"
     pagecolor="#505050"
     bordercolor="#eeeeee"
     borderopacity="1"
     inkscape:showpageshadow="0"
     inkscape:pageopacity="0"
     inkscape:pagecheckerboard="0"
     inkscape:deskcolor="#505050"
     inkscape:document-units="mm"
     inkscape:zoom="0.5"
     inkscape:cx="483"
     inkscape:cy="709"
     inkscape:window-width="1920"
     inkscape:window-height="1004"
     inkscape:window-x="0"
     inkscape:window-y="0"
     inkscape:window-maximized="1"
     inkscape:current-layer="g3"><inkscape:page
       x="0"
       y="0"
       width="98.545738"
       height="112.80857"
       id="page2"
       margin="0"
       bleed="0" /></sodipodi:namedview><defs
     id="defs1"><style
       id="style1">.cls-1{fill:#6db33f;}</style></defs><g
     inkscape:label="Layer 1"
     inkscape:groupmode="layer"
     id="layer1"
     transform="translate(-50.000003,-136.74397)"><g
       id="g3"><g
         id="g17"
         transform="matrix(-1,0,0,1,195.54575,-4.2316307e-7)" /><g
         id="g24"
         transform="matrix(1,0,0,0.8707554,0,32.253315)"
         style="fill:#ba5bc5;fill-opacity:1"
         inkscape:export-filename="Exports/PowerPlant.svg"
         inkscape:export-xdpi="96"
         inkscape:export-ydpi="96"><g
           id="g18"
           transform="translate(0,0.51308715)"
           style="fill:#ba5bc5;fill-opacity:1"><g
             id="g13"
             style="fill:#ba5bc5;fill-opacity:1"><g
               id="g8"
               transform="matrix(-1,0,0,1,199.76434,-32.730317)"
               style="fill:#ba5bc5;fill-opacity:1"><path
                 style="fill:#ba5bc5;fill-opacity:1;stroke-width:0.264583"
                 d="m 100.43703,152.8735 c 0,0 18.47194,-1.65519 34.16315,6.28972 0,0 -4.43591,33.10384 -1.39036,46.08054 3.04556,12.9767 5.95869,42.24049 15.4926,69.25322 9.5339,27.01273 -48.26539,-121.62348 -48.26539,-121.62348 z"
                 id="path6" /><path
                 style="fill:#ba5bc5;fill-opacity:1;stroke-width:0.264583"
                 d="m 149.69553,277.70804 c 0,0 -33.40486,5.05992 -50.820374,2.62551 -17.41551,-2.43443 50.820374,-2.62551 50.820374,-2.62551 z"
                 id="path7" /><g
                 id="g9"
                 style="fill:#ba5bc5;fill-opacity:1"><path
                   style="fill:#ba5bc5;fill-opacity:1;stroke-width:0.264583"
                   d="m 96.034218,279.61153 4.412202,-126.73132 28.79094,57.72637 20.52667,67.12868 z"
                   id="path8" /></g></g><path
               style="fill:#ba5bc5;fill-opacity:1;stroke-width:0.264583"
               d="m 50.006249,245.04654 c 0,0 20.439063,3.86023 47.095833,3.99252 26.656768,0.13229 -18.322395,-34.32969 -18.322395,-34.32969 z"
               id="path9" /></g><path
             style="fill:#ba5bc5;fill-opacity:1;stroke-width:0.264583"
             d="m 65.16398,126.43156 c 0,0 9.063447,-6.27386 32.870481,-6.92867 23.807029,-0.65482 -26.145641,19.03627 -26.145641,19.03627 z"
             id="path17" /></g><g
           id="g23"
           transform="matrix(-1,0,0,1,198.54575,0.51308715)"
           style="fill:#ba5bc5;fill-opacity:1"><g
             id="g22"
             style="fill:#ba5bc5;fill-opacity:1"><g
               id="g21"
               transform="matrix(-1,0,0,1,199.76434,-32.730317)"
               style="fill:#ba5bc5;fill-opacity:1"><path
                 style="fill:#ba5bc5;fill-opacity:1;stroke-width:0.264583"
                 d="m 100.43703,152.8735 c 0,0 18.47194,-1.65519 34.16315,6.28972 0,0 -4.43591,33.10384 -1.39036,46.08054 3.04556,12.9767 5.95869,42.24049 15.4926,69.25322 9.5339,27.01273 -48.26539,-121.62348 -48.26539,-121.62348 z"
                 id="path18" /><path
                 style="fill:#ba5bc5;fill-opacity:1;stroke-width:0.264583"
                 d="m 149.69553,277.70804 c 0,0 -33.40486,5.05992 -50.820374,2.62551 -17.41551,-2.43443 50.820374,-2.62551 50.820374,-2.62551 z"
                 id="path19" /><g
                 id="g20"
                 style="fill:#ba5bc5;fill-opacity:1"><path
                   style="fill:#ba5bc5;fill-opacity:1;stroke-width:0.264583"
                   d="m 96.034218,279.61153 4.412202,-126.73132 28.79094,57.72637 20.52667,67.12868 z"
                   id="path20" /></g></g><path
               style="fill:#ba5bc5;fill-opacity:1;stroke-width:0.264583"
               d="m 50.006249,245.04654 c 0,0 20.439063,3.86023 47.095833,3.99252 26.656768,0.13229 -18.322395,-34.32969 -18.322395,-34.32969 z"
               id="path21" /></g><path
             style="fill:#ba5bc5;fill-opacity:1;stroke-width:0.264583"
             d="m 65.16398,126.43156 c 0,0 9.063447,-6.27386 32.870481,-6.92867 23.807029,-0.65482 -26.145641,19.03627 -26.145641,19.03627 z"
             id="path22" /></g></g><path
         class="cls-1"
         d="m 119.68851,177.41937 a 21.116015,21.116015 0 0 1 -2.59459,4.54055 24.179632,24.179632 0 1 0 -33.779642,34.57798 l 0.898129,0.79833 a 24.154684,24.154684 0 0 0 39.667373,-16.76508 c 0.69855,-6.08732 -1.14761,-13.8711 -4.19127,-23.15178 z m -32.881508,39.31811 a 2.0557178,2.0557178 0 1 1 -0.299377,-2.89396 2.1006242,2.1006242 0 0 1 0.299377,2.89396 z m 32.731818,-7.23494 c -5.93763,7.93349 -18.71102,5.23911 -26.844084,5.63826 0,0 -1.446983,0.0998 -2.89397,0.29937 0,0 0.548857,-0.24947 1.247401,-0.49895 5.738048,-1.99584 8.432439,-2.39501 11.925163,-4.19127 6.53639,-3.34304 13.07277,-10.67775 14.37007,-18.26196 -2.49481,7.28484 -10.079,13.57174 -16.96467,16.11643 -4.740125,1.74636 -13.272351,3.44284 -13.272351,3.44284 l -0.349273,-0.1996 c -5.787944,-2.84407 -5.987528,-15.41788 4.590437,-19.45946 4.640334,-1.79626 9.031187,-0.79833 14.070697,-1.99584 5.33888,-1.2474 11.52599,-5.23908 14.02079,-10.47818 2.79418,8.43244 6.18711,21.50521 0.0998,29.58836 z"
         id="path1"
         style="fill:#ffffff;fill-opacity:1;stroke-width:0.49896" /></g></g></svg>
