<?xml version="1.0" encoding="UTF-8" standalone="no"?>
<!-- Created with Inkscape (http://www.inkscape.org/) -->

<svg
   width="18.337383mm"
   height="28.935186mm"
   viewBox="0 0 18.337383 28.935186"
   version="1.1"
   id="svg1"
   inkscape:version="1.4.2 (ebf0e94, 2025-05-08)"
   sodipodi:docname="empower-devs.svg"
   inkscape:export-filename="FirstLogo.svg"
   inkscape:export-xdpi="96"
   inkscape:export-ydpi="96"
   xmlns:inkscape="http://www.inkscape.org/namespaces/inkscape"
   xmlns:sodipodi="http://sodipodi.sourceforge.net/DTD/sodipodi-0.dtd"
   xmlns="http://www.w3.org/2000/svg"
   xmlns:svg="http://www.w3.org/2000/svg">
  <sodipodi:namedview
     id="namedview1"
     pagecolor="#ffffff"
     bordercolor="#999999"
     borderopacity="1"
     inkscape:showpageshadow="2"
     inkscape:pageopacity="0"
     inkscape:pagecheckerboard="0"
     inkscape:deskcolor="#d1d1d1"
     inkscape:document-units="mm"
     inkscape:zoom="11.313709"
     inkscape:cx="18.075417"
     inkscape:cy="-98.066871"
     inkscape:window-width="1920"
     inkscape:window-height="1004"
     inkscape:window-x="0"
     inkscape:window-y="0"
     inkscape:window-maximized="1"
     inkscape:current-layer="svg1"
     inkscape:export-bgcolor="#ffffff00">
    <inkscape:page
       x="0"
       y="0"
       width="18.337381"
       height="28.935186"
       id="page1"
       margin="0"
       bleed="0" />
  </sodipodi:namedview>
  <defs
     id="defs1" />
  <g
     id="g7"
     transform="translate(5.1813956,38.827607)"
     inkscape:export-filename="Exports/EmpowerDevs.svg"
     inkscape:export-xdpi="96"
     inkscape:export-ydpi="96">
    <g
       id="g3"
       transform="translate(-0.99993896,-12.499946)">
      <g
         id="g2"
         inkscape:label="Face">
        <path
           id="path1"
           style="fill:#ba5bc5;stroke:none;stroke-width:0.264583;stroke-opacity:1"
           d="m 0.99993896,-16.000057 c 0,0 0.23723564,5.621145 0.50022784,6.0001506 1.4204361,1.4537653 3.5000596,1.9997947 3.5003765,1.9998779 3.169e-4,-8.32e-5 2.079277,-0.5461126 3.499713,-1.9998779 0.2629922,-0.3790056 0.4997111,-6.0001506 0.4997111,-6.0001506 0,0 -1.4678731,-1.510355 -3.9999674,-1.499943 -2.5320943,0.01041 -4.00006104,1.499943 -4.00006104,1.499943 z"
           sodipodi:nodetypes="ccccczc"
           inkscape:label="Head" />
      </g>
      <path
         id="path2"
         style="fill:#532759;fill-opacity:1;stroke-width:0.264583"
         d="m 1.0500651,-15.000118 1.2660726,1.500167 h 1.883606 l 0.5002278,-1.300179 h 0.3002401 0.2997233 l 0.5002279,1.300179 h 1.8836059 l 1.2660726,-1.500167 H 5.0002116 Z"
         inkscape:label="glasses" />
    </g>
    <path
       id="path7"
       style="fill:#532759;fill-opacity:1;stroke-width:0.264583"
       d="m 4.0005769,-33.58348 c -1.145e-4,3.48e-4 -0.5924067,1.801701 -0.6040975,1.848466 -0.011693,0.04677 -0.7022827,-1.663464 -0.7022827,-1.663464 l -0.3059245,1.790071 -1.0629842,-1.300179 -0.027389,1.823145 -1.00200607,-1.226282 0.24029541,1.773535 -0.71158447,-0.834057 0.17518310547,2.91145 c 0,0 1.56861642453,-0.923611 4.00081692453,-0.935304 2.4322005,-0.01169 4.0007619,0.935304 4.0007619,0.935304 l 0.1751831,-2.91145 -0.7115845,0.834057 0.2402954,-1.773535 -1.002006,1.226282 -0.027388,-1.823145 -1.0629842,1.300179 -0.3059245,-1.790071 c 0,0 -0.6905897,1.710237 -0.7022827,1.663464 -0.011691,-0.04677 -0.6040073,-1.848191 -0.6040975,-1.848466 z"
       sodipodi:nodetypes="cscccccccczccccccccsc"
       inkscape:label="hair" />
  </g>
  <g
     id="g6"
     transform="translate(0,38.827607)">
    <g
       id="g4"
       style="display:inline">
      <path
         id="path3-3"
         style="fill:#ba5bc5;fill-opacity:1;stroke:none;stroke-width:0.265;stroke-dasharray:none;stroke-opacity:1"
         inkscape:label="body"
         d="M 1.2236979,-38.827604 0.1984375,-38.794531 0,-28.971875 l 3.1300415,11.983248 3.0008504,7.0879393 h 3.0365072 0.00258 3.0365069 l 3.001367,-7.0879393 3.129525,-11.983248 -0.198438,-9.822656 -1.02526,-0.03307 -0.760677,9.971484 -2.976563,8.962761 -1.934765,-0.08268 -0.537435,-1.471744 -1.7342609,-0.313676 v -5.17e-4 h -0.00155 -0.00103 v 5.17e-4 l -1.7342611,0.313676 -0.5374349,1.471744 -1.9347656,0.08268 -2.9765625,-8.962761 z" />
      <path
         id="path3"
         style="fill:#532759;fill-opacity:1;stroke:none;stroke-width:0.264999;stroke-dasharray:none;stroke-opacity:1"
         inkscape:label="Shirt"
         d="m 4.5139364,-21.365104 -2.9460734,1.457275 1.5420247,2.847888 3.0049845,7.1675216 3.0442587,-0.011369 h 0.019637 l 3.0437421,0.011369 3.004984,-7.1675216 1.542025,-2.847888 -2.946073,-1.457275 -0.631486,1.231449 -1.74408,0.132809 -2.2794474,1.396814 -2.2789306,-1.396814 -1.7440796,-0.132809 z" />
    </g>
  </g>
</svg>
