<?xml version="1.0" encoding="UTF-8" standalone="no"?>
<!-- Created with Inkscape (http://www.inkscape.org/) -->

<svg
   width="92.148758mm"
   height="97.956741mm"
   viewBox="0 0 92.148758 97.956741"
   version="1.1"
   id="svg1"
   xmlns="http://www.w3.org/2000/svg"
   xmlns:svg="http://www.w3.org/2000/svg">
  <defs
     id="defs1" />
  <g
     transform="matrix(0.647015,0,0,0.647015,46.074382,48.978378)"
     id="g179"
     style="display:inline;stroke-width:0.999977;stroke-dasharray:none">
    <path
       id="path177"
       style="display:none;fill:#6e3675;fill-opacity:1;stroke:#000000;stroke-width:0.999977;stroke-linejoin:round;stroke-dasharray:none;stroke-opacity:1"
       d="m 4.0917969,-12.716797 c 0,27.248047 0,54.496094 0,81.744141 20.8424481,-8.809245 41.6848961,-17.61849 62.5273441,-26.427735 0,-27.247395 0,-54.494791 0,-81.742187 -20.842448,8.808594 -41.684896,17.617187 -62.5273441,26.425781 z" />
    <path
       id="path178"
       style="display:none;fill:#a752b1;fill-opacity:1;stroke:#000000;stroke-width:0.999977;stroke-linejoin:round;stroke-dasharray:none;stroke-opacity:1"
       d="M -60.203125,-45.314453 C -40.135417,-53.794922 -20.067708,-62.275391 0,-70.755859 20.067708,-62.275391 40.135417,-53.794922 60.203125,-45.314453 40.135417,-36.834635 20.067708,-28.354818 0,-19.875 -20.067708,-28.354818 -40.135417,-36.834635 -60.203125,-45.314453 Z" />
    <path
       id="path179"
       style="display:none;fill:#572b5d;fill-opacity:1;stroke:#000000;stroke-width:0.999977;stroke-linejoin:round;stroke-dasharray:none;stroke-opacity:1"
       d="m -66.619141,42.599609 c 0,-27.247395 0,-54.494791 0,-81.742187 20.842448,8.808594 41.684896,17.617187 62.5273441,26.425781 0,27.248047 0,54.496094 0,81.744141 C -24.934245,60.218099 -45.776693,51.408854 -66.619141,42.599609 Z" />
    <path
       style="display:inline;fill:#6e3675;fill-opacity:1;stroke:#000000;stroke-width:0.999977;stroke-linejoin:round;stroke-dasharray:none;stroke-opacity:1"
       d="M 70.7107,-45.3154 0,-15.4318 V 75.199 L 70.7107,45.3154 Z"
       id="path208" />
    <path
       style="display:inline;fill:#a752b1;fill-opacity:1;stroke:#000000;stroke-width:0.999977;stroke-linejoin:round;stroke-dasharray:none;stroke-opacity:1"
       d="M 70.7107,-45.3154 0,-75.199 -70.7107,-45.3154 0,-15.4318 Z"
       id="path209" />
    <path
       style="display:inline;fill:#572b5d;fill-opacity:1;stroke:#000000;stroke-width:0.999977;stroke-linejoin:round;stroke-dasharray:none;stroke-opacity:1"
       d="M 0,-15.4318 -70.7107,-45.3154 V 45.3154 L 0,75.199 Z"
       id="path210" />
  </g>
  <path
     style="font-size:19.7556px;font-family:'Microsoft Sans Serif';-inkscape-font-specification:'Microsoft Sans Serif';fill:#000000;fill-opacity:1;stroke-width:5.121"
     d="m 26.581782,27.882378 c -5.7532,-2.431 -9.2004,-4.6165 -10.3415,-6.5559 -1.1187,-1.9299 -0.8947,-3.55 0.672,-4.8604 1.5892,-1.3009 3.9252,-2.6027 7.0079,-3.9054 l 22.1542,-9.3623004 6.566,2.7746 -22.0762,9.3290004 c -5.0334,2.1271 -7.2482,3.9878 -6.6446,5.5824 0.6036,1.5945 3.015,3.283 7.234,5.066 4.2189,1.783 8.2148,2.802 11.9888,3.057 3.773,0.255 8.176,-0.681 13.209,-2.808 l 22.076,-9.3287 6.599,2.7887 -22.154,9.362 c -4.633,1.957 -8.768,3.095 -12.407,3.412 -3.615,0.326 -7.416,0.111 -11.401,-0.645 -3.9673,-0.764 -8.1282,-2.066 -12.4826,-3.906 z"
     id="text210"
     aria-label="U" />
  <path
     style="font-size:19.7556px;font-family:'Microsoft Sans Serif';-inkscape-font-specification:'Microsoft Sans Serif';stroke-width:5.121"
     d="m 23.968682,85.416378 c -6.2392,-2.638 -11.3036,-7.185 -15.1931997,-13.644 -3.8698,-6.45 -5.8047,-13.675 -5.8047,-21.676 0,-8.024 1.9152,-13.622 5.7455,-16.794 3.8302997,-3.196 8.8551997,-3.479 15.0746997,-0.851 5.2322,2.212 9.576,5.536 13.0314,9.973 3.475,4.423 5.42,9.21 5.835,14.363 l -5.954,-2.516 c -0.236,-3.403 -1.5001,-6.519 -3.7905,-9.347 -2.2904,-2.852 -5.3113,-5.071 -9.0627,-6.656 -4.4819,-1.895 -8.0951,-1.619 -10.8396,0.826 -2.7247,2.453 -4.0869997,6.96 -4.0869997,13.518 0,6.536 1.3820997,12.202 4.1461997,16.998 2.7642,4.774 6.3774,8.103 10.8396,9.989 6.259,2.646 10.9089,2.18 13.95,-1.395 v -7.78 l -11.4622,-4.845 v -6.105 l 17.0302,7.198 v 26.096 l -4.058,-1.715 -1.51,-6.012 c -2.9424,2.92 -7.5725,3.045 -13.8907,0.375 z"
     id="text211"
     aria-label="G" />
  <path
     style="font-size:19.7556px;font-family:'Microsoft Sans Serif';-inkscape-font-specification:'Microsoft Sans Serif';stroke-width:5.121"
     d="m 70.311382,31.626378 c -6.563,2.774 -11.808,7.362 -15.733,13.766 -3.904,6.418 -5.857,13.686 -5.857,21.803 0,8.117 1.953,13.723 5.857,16.818 3.925,3.108 9.17,3.276 15.733,0.502 5.044,-2.132 9.338,-5.447 12.884,-9.946 3.545,-4.499 5.539,-9.296 5.983,-14.39 l -6.331,2.675 c -0.254,3.34 -1.53,6.45 -3.831,9.329 -2.279,2.871 -5.16,5.042 -8.642,6.514 -4.706,1.989 -8.431,1.772 -11.174,-0.65 -2.744,-2.399 -4.116,-6.913 -4.116,-13.541 0,-6.606 1.362,-12.275 4.084,-17.007 2.722,-4.732 6.416,-8.084 11.08,-10.055 3.629,-1.534 6.563,-1.797 8.8,-0.789 2.237,1.008 3.503,3.264 3.799,6.767 l 6.331,-2.675 c -0.444,-5.255 -2.385,-8.644 -5.825,-10.168 -3.44,-1.523 -7.787,-1.174 -13.042,1.047 z"
     id="text212"
     aria-label="C" />
</svg>
